<svg width="32" height="32" viewBox="0 0 32 32" fill="none" xmlns="http://www.w3.org/2000/svg">
<path d="M16 26.6667C21.8911 26.6667 26.6667 21.891 26.6667 16C26.6667 10.1089 21.8911 5.33325 16 5.33325C10.109 5.33325 5.33331 10.1089 5.33331 16C5.33331 21.891 10.109 26.6667 16 26.6667Z" fill="#0B0B0B"/>
<path fill-rule="evenodd" clip-rule="evenodd" d="M16.022 22.0007C19.5168 22.0007 23.6929 19.8247 23.6929 15.9342H24.0666C23.9787 20.3742 20.4399 23.9789 16.022 23.9789C11.626 23.9789 8.06528 20.3961 7.97736 16.0661C7.99026 15.4047 8.07563 14.7613 8.22617 14.1448C8.08042 13.792 8 13.4054 8 13C8 11.4752 9.1376 10.2161 10.6104 10.0251C12.0221 8.69938 13.9057 7.88965 16.022 7.88965C18.9453 7.88965 21.5169 9.42824 22.9896 11.9119H21.7807C20.2421 10.5052 18.0661 9.86783 16.022 9.86783C14.868 9.86783 13.6991 10.0669 12.6269 10.479C13.4532 11.0133 14 11.9428 14 13C14 14.6569 12.6569 16 11 16C9.96421 16 9.05103 15.4751 8.51196 14.6767C8.40366 15.0842 8.35102 15.5034 8.35102 15.9342C8.35102 19.8467 12.5492 22.0007 16.022 22.0007Z" fill="white"/>
</svg>
